<?xml version="1.0" encoding="UTF-8" standalone="no"?>
<svg width="600" height="400" viewBox="0 0 600 400" fill="none" xmlns="http://www.w3.org/2000/svg">
  <!-- Fond -->
  <rect width="600" height="400" fill="#F3F4F6"/>
  
  <!-- Titre -->
  <text x="300" y="50" font-family="Arial" font-size="24" font-weight="bold" text-anchor="middle" fill="#1F2937">Traduction en temps réel</text>
  
  <!-- Écran de téléconsultation -->
  <rect x="50" y="80" width="500" height="280" rx="8" fill="#FFFFFF" stroke="#D1D5DB" stroke-width="2"/>
  
  <!-- Vidéo du patient -->
  <rect x="70" y="100" width="220" height="160" rx="4" fill="#111827"/>
  <text x="180" y="180" font-family="Arial" font-size="14" text-anchor="middle" fill="#FFFFFF">Patient</text>
  
  <!-- Vidéo du médecin -->
  <rect x="310" y="100" width="220" height="160" rx="4" fill="#111827"/>
  <text x="420" y="180" font-family="Arial" font-size="14" text-anchor="middle" fill="#FFFFFF">Médecin</text>
  
  <!-- Sous-titres du patient -->
  <rect x="80" y="220" width="200" height="50" rx="4" fill="#000000" fill-opacity="0.7"/>
  <text x="180" y="245" font-family="Arial" font-size="12" text-anchor="middle" fill="#FFFFFF">Bonjour, comment allez-vous ?</text>
  <text x="180" y="260" font-family="Arial" font-size="10" text-anchor="middle" fill="#9CA3AF">Français</text>
  
  <!-- Sous-titres du médecin (traduits) -->
  <rect x="320" y="220" width="200" height="50" rx="4" fill="#000000" fill-opacity="0.7"/>
  <text x="420" y="245" font-family="Arial" font-size="12" text-anchor="middle" fill="#FFFFFF">Hello, how are you?</text>
  <text x="420" y="260" font-family="Arial" font-size="10" text-anchor="middle" fill="#9CA3AF">English</text>
  
  <!-- Contrôles -->
  <circle cx="90" cy="290" r="15" fill="#10B981"/>
  <text x="90" y="295" font-family="Arial" font-size="14" text-anchor="middle" fill="#FFFFFF">🎥</text>
  
  <circle cx="130" cy="290" r="15" fill="#10B981"/>
  <text x="130" y="295" font-family="Arial" font-size="14" text-anchor="middle" fill="#FFFFFF">🎤</text>
  
  <circle cx="170" cy="290" r="15" fill="#10B981"/>
  <text x="170" y="295" font-family="Arial" font-size="12" text-anchor="middle" fill="#FFFFFF">CC</text>
  
  <circle cx="210" cy="290" r="15" fill="#3B82F6"/>
  <text x="210" y="295" font-family="Arial" font-size="10" text-anchor="middle" fill="#FFFFFF">FR→EN</text>
  
  <!-- Flèche de traduction -->
  <line x1="280" y1="245" x2="310" y2="245" stroke="#3B82F6" stroke-width="2"/>
  <polygon points="310,245 305,240 305,250" fill="#3B82F6"/>
</svg>
